STARTFONT 2.1
FONT -FontForge-Courgette-Book-R-Normal--11-110-72-72-P-57-ISO10646-1
SIZE 11 72 72
FONTBOUNDINGBOX 14 15 -2 -3
COMMENT "Generated by fontforge, http://fontforge.sourceforge.net"
COMMENT "Copyright (c) 2012, Sorkin Type Co (www.sorkintype.com) with Reserved Font Name "Courgette"."
STARTPROPERTIES 40
FOUNDRY "FontForge"
FAMILY_NAME "Courgette"
WEIGHT_NAME "Book"
SLANT "R"
SETWIDTH_NAME "Normal"
ADD_STYLE_NAME ""
PIXEL_SIZE 11
POINT_SIZE 110
RESOLUTION_X 72
RESOLUTION_Y 72
SPACING "P"
AVERAGE_WIDTH 57
CHARSET_REGISTRY "ISO10646"
CHARSET_ENCODING "1"
FONTNAME_REGISTRY ""
CHARSET_COLLECTIONS "ISO8859-2 ISO8859-9 ISO8859-4 ISO10646-1"
FONT_NAME "Courgette-Regular"
FACE_NAME "Courgette Regular"
COPYRIGHT "Copyright (c) 2012, Sorkin Type Co (www.sorkintype.com) with Reserved Font Name "Courgette"."
FONT_VERSION "1.002"
FONT_ASCENT 9
FONT_DESCENT 2
UNDERLINE_POSITION -1
UNDERLINE_THICKNESS 1
X_HEIGHT 5
CAP_HEIGHT 8
DEFAULT_CHAR 1
RAW_ASCENT 799
RAW_DESCENT 200
NORM_SPACE 3
RELATIVE_WEIGHT 40
RELATIVE_SETWIDTH 50
SUPERSCRIPT_X 0
SUPERSCRIPT_Y 5
SUPERSCRIPT_SIZE 7
SUBSCRIPT_X 0
SUBSCRIPT_Y 1
SUBSCRIPT_SIZE 7
AVG_LOWERCASE_WIDTH 54
AVG_UPPERCASE_WIDTH 65
ENDPROPERTIES
CHARS 407
STARTCHAR .null.dup1
ENCODING 0
SWIDTH 0 0
DWIDTH 0 0
BBX 1 1 0 0
BITMAP
00
ENDCHAR
STARTCHAR uni0001
ENCODING 1
SWIDTH 0 0
DWIDTH 0 0
BBX 1 1 0 0
BITMAP
00
ENDCHAR
STARTCHAR uni0002
ENCODING 2
SWIDTH 0 0
DWIDTH 0 0
BBX 1 1 0 0
BITMAP
00
ENDCHAR
STARTCHAR uni0003
ENCODING 3
SWIDTH 0 0
DWIDTH 0 0
BBX 1 1 0 0
BITMAP
00
ENDCHAR
STARTCHAR uni0004
ENCODING 4
SWIDTH 0 0
DWIDTH 0 0
BBX 1 1 0 0
BITMAP
00
ENDCHAR
STARTCHAR uni0005
ENCODING 5
SWIDTH 0 0
DWIDTH 0 0
BBX 1 1 0 0
BITMAP
00
ENDCHAR
STARTCHAR uni0006
ENCODING 6
SWIDTH 0 0
DWIDTH 0 0
BBX 1 1 0 0
BITMAP
00
ENDCHAR
STARTCHAR uni0007
ENCODING 7
SWIDTH 0 0
DWIDTH 0 0
BBX 1 1 0 0
BITMAP
00
ENDCHAR
STARTCHAR uni0008
ENCODING 8
SWIDTH 0 0
DWIDTH 0 0
BBX 1 1 0 0
BITMAP
00
ENDCHAR
STARTCHAR uni0009
ENCODING 9
SWIDTH 0 0
DWIDTH 0 0
BBX 1 1 0 0
BITMAP
00
ENDCHAR
STARTCHAR nonmarkingreturn
ENCODING 13
SWIDTH 0 0
DWIDTH 0 0
BBX 1 1 0 0
BITMAP
00
ENDCHAR
STARTCHAR uni0015
ENCODING 21
SWIDTH 0 0
DWIDTH 0 0
BBX 1 1 0 0
BITMAP
00
ENDCHAR
STARTCHAR uni0016
ENCODING 22
SWIDTH 0 0
DWIDTH 0 0
BBX 1 1 0 0
BITMAP
00
ENDCHAR
STARTCHAR uni0017
ENCODING 23
SWIDTH 0 0
DWIDTH 0 0
BBX 1 1 0 0
BITMAP
00
ENDCHAR
STARTCHAR uni0018
ENCODING 24
SWIDTH 0 0
DWIDTH 0 0
BBX 1 1 0 0
BITMAP
00
ENDCHAR
STARTCHAR uni0019
ENCODING 25
SWIDTH 0 0
DWIDTH 0 0
BBX 1 1 0 0
BITMAP
00
ENDCHAR
STARTCHAR space
ENCODING 32
SWIDTH 307 0
DWIDTH 3 0
BBX 1 1 0 0
BITMAP
00
ENDCHAR
STARTCHAR exclam
ENCODING 33
SWIDTH 417 0
DWIDTH 5 0
BBX 4 9 1 0
BITMAP
10
20
20
40
40
40
40
80
C0
ENDCHAR
STARTCHAR quotedbl
ENCODING 34
SWIDTH 437 0
DWIDTH 5 0
BBX 4 3 2 7
BITMAP
B0
A0
A0
ENDCHAR
STARTCHAR numbersign
ENCODING 35
SWIDTH 725 0
DWIDTH 8 0
BBX 7 9 1 0
BITMAP
14
14
24
FE
28
28
FC
50
50
ENDCHAR
STARTCHAR dollar
ENCODING 36
SWIDTH 545 0
DWIDTH 6 0
BBX 5 13 1 -2
BITMAP
08
08
38
48
48
58
40
60
A0
A0
E0
80
80
ENDCHAR
STARTCHAR percent
ENCODING 37
SWIDTH 876 0
DWIDTH 10 0
BBX 8 9 1 0
BITMAP
62
92
A4
A8
56
15
29
4A
8E
ENDCHAR
STARTCHAR ampersand
ENCODING 38
SWIDTH 563 0
DWIDTH 6 0
BBX 6 9 0 0
BITMAP
1C
24
64
48
30
60
5C
C8
70
ENDCHAR
STARTCHAR quotesingle
ENCODING 39
SWIDTH 231 0
DWIDTH 3 0
BBX 1 3 2 7
BITMAP
80
80
80
ENDCHAR
STARTCHAR parenleft
ENCODING 40
SWIDTH 478 0
DWIDTH 5 0
BBX 6 14 1 -3
BITMAP
04
08
10
20
60
40
40
C0
80
80
80
C0
40
60
ENDCHAR
STARTCHAR parenright
ENCODING 41
SWIDTH 478 0
DWIDTH 5 0
BBX 5 14 -1 -3
BITMAP
10
10
08
08
08
08
08
08
08
10
10
20
40
80
ENDCHAR
STARTCHAR asterisk
ENCODING 42
SWIDTH 518 0
DWIDTH 6 0
BBX 4 5 1 4
BITMAP
30
A0
70
60
90
ENDCHAR
STARTCHAR plus
ENCODING 43
SWIDTH 617 0
DWIDTH 7 0
BBX 5 6 1 1
BITMAP
20
20
20
F8
20
20
ENDCHAR
STARTCHAR comma
ENCODING 44
SWIDTH 312 0
DWIDTH 3 0
BBX 2 4 0 -2
BITMAP
40
C0
40
80
ENDCHAR
STARTCHAR hyphen
ENCODING 45
SWIDTH 452 0
DWIDTH 5 0
BBX 3 1 1 3
BITMAP
E0
ENDCHAR
STARTCHAR period
ENCODING 46
SWIDTH 270 0
DWIDTH 3 0
BBX 2 2 0 0
BITMAP
C0
40
ENDCHAR
STARTCHAR slash
ENCODING 47
SWIDTH 405 0
DWIDTH 4 0
BBX 7 13 -1 -2
BITMAP
02
02
04
04
08
08
10
10
20
20
40
40
80
ENDCHAR
STARTCHAR zero
ENCODING 48
SWIDTH 621 0
DWIDTH 7 0
BBX 6 9 1 0
BITMAP
18
24
44
C4
8C
88
98
90
E0
ENDCHAR
STARTCHAR one
ENCODING 49
SWIDTH 405 0
DWIDTH 4 0
BBX 3 9 1 0
BITMAP
20
E0
20
20
40
40
40
80
80
ENDCHAR
STARTCHAR two
ENCODING 50
SWIDTH 524 0
DWIDTH 6 0
BBX 6 9 0 0
BITMAP
18
24
64
2C
18
30
60
40
F8
ENDCHAR
STARTCHAR three
ENCODING 51
SWIDTH 537 0
DWIDTH 6 0
BBX 6 9 0 0
BITMAP
1C
24
64
2C
18
30
48
D0
70
ENDCHAR
STARTCHAR four
ENCODING 52
SWIDTH 529 0
DWIDTH 6 0
BBX 5 9 1 0
BITMAP
60
40
50
D8
90
F8
20
20
40
ENDCHAR
STARTCHAR five
ENCODING 53
SWIDTH 540 0
DWIDTH 6 0
BBX 7 9 0 0
BITMAP
1E
20
20
38
48
08
48
98
70
ENDCHAR
STARTCHAR six
ENCODING 54
SWIDTH 554 0
DWIDTH 6 0
BBX 5 9 1 0
BITMAP
38
68
48
B0
D0
98
90
90
E0
ENDCHAR
STARTCHAR seven
ENCODING 55
SWIDTH 473 0
DWIDTH 5 0
BBX 5 8 1 1
BITMAP
F8
10
30
20
40
40
80
80
ENDCHAR
STARTCHAR eight
ENCODING 56
SWIDTH 524 0
DWIDTH 6 0
BBX 5 9 1 0
BITMAP
30
48
48
48
70
60
B0
90
E0
ENDCHAR
STARTCHAR nine
ENCODING 57
SWIDTH 554 0
DWIDTH 6 0
BBX 5 9 1 0
BITMAP
38
48
C8
88
98
70
10
A0
C0
ENDCHAR
STARTCHAR colon
ENCODING 58
SWIDTH 312 0
DWIDTH 3 0
BBX 3 6 0 0
BITMAP
60
20
00
00
C0
40
ENDCHAR
STARTCHAR semicolon
ENCODING 59
SWIDTH 312 0
DWIDTH 3 0
BBX 3 7 0 -2
BITMAP
60
20
00
40
C0
40
80
ENDCHAR
STARTCHAR less
ENCODING 60
SWIDTH 637 0
DWIDTH 7 0
BBX 5 6 1 0
BITMAP
08
30
C0
C0
30
08
ENDCHAR
STARTCHAR equal
ENCODING 61
SWIDTH 617 0
DWIDTH 7 0
BBX 5 3 1 3
BITMAP
F8
00
F8
ENDCHAR
STARTCHAR greater
ENCODING 62
SWIDTH 606 0
DWIDTH 7 0
BBX 5 6 1 1
BITMAP
80
60
18
18
60
80
ENDCHAR
STARTCHAR question
ENCODING 63
SWIDTH 516 0
DWIDTH 6 0
BBX 5 9 1 0
BITMAP
30
48
48
10
60
40
40
C0
80
ENDCHAR
STARTCHAR at
ENCODING 64
SWIDTH 905 0
DWIDTH 10 0
BBX 9 10 1 -2
BITMAP
1E00
2100
4A80
9480
A480
A500
AD00
B600
C400
7800
ENDCHAR
STARTCHAR A
ENCODING 65
SWIDTH 615 0
DWIDTH 7 0
BBX 8 9 -1 0
BITMAP
03
05
0A
12
1F
26
24
44
C6
ENDCHAR
STARTCHAR B
ENCODING 66
SWIDTH 551 0
DWIDTH 6 0
BBX 7 9 0 0
BITMAP
3C
76
26
6C
78
48
48
88
70
ENDCHAR
STARTCHAR C
ENCODING 67
SWIDTH 533 0
DWIDTH 6 0
BBX 6 9 1 0
BITMAP
18
64
4C
D8
80
80
80
90
F0
ENDCHAR
STARTCHAR D
ENCODING 68
SWIDTH 630 0
DWIDTH 7 0
BBX 6 9 1 0
BITMAP
F8
84
64
44
C4
88
98
B0
E0
ENDCHAR
STARTCHAR E
ENCODING 69
SWIDTH 509 0
DWIDTH 6 0
BBX 6 9 0 0
BITMAP
1C
24
6C
48
30
60
40
C8
70
ENDCHAR
STARTCHAR F
ENCODING 70
SWIDTH 518 0
DWIDTH 6 0
BBX 7 9 0 0
BITMAP
7E
50
10
30
78
20
20
40
C0
ENDCHAR
STARTCHAR G
ENCODING 71
SWIDTH 598 0
DWIDTH 7 0
BBX 6 9 1 0
BITMAP
18
64
4C
D8
80
BC
90
90
E0
ENDCHAR
STARTCHAR H
ENCODING 72
SWIDTH 668 0
DWIDTH 7 0
BBX 8 9 0 0
BITMAP
71
33
22
22
7E
64
44
C4
8E
ENDCHAR
STARTCHAR I
ENCODING 73
SWIDTH 327 0
DWIDTH 4 0
BBX 4 9 0 0
BITMAP
70
10
30
20
20
20
40
40
80
ENDCHAR
STARTCHAR J
ENCODING 74
SWIDTH 393 0
DWIDTH 4 0
BBX 7 12 -2 -3
BITMAP
1E
16
04
04
04
0C
08
18
10
30
20
C0
ENDCHAR
STARTCHAR K
ENCODING 75
SWIDTH 616 0
DWIDTH 7 0
BBX 8 9 -1 0
BITMAP
31
11
13
12
1C
38
2C
64
C7
ENDCHAR
STARTCHAR L
ENCODING 76
SWIDTH 517 0
DWIDTH 6 0
BBX 6 9 0 0
BITMAP
1C
14
24
2C
68
40
40
80
F8
ENDCHAR
STARTCHAR M
ENCODING 77
SWIDTH 931 0
DWIDTH 10 0
BBX 11 9 -1 0
BITMAP
0620
0A60
0EA0
14C0
1540
2540
26C0
46C0
8460
ENDCHAR
STARTCHAR N
ENCODING 78
SWIDTH 708 0
DWIDTH 8 0
BBX 9 9 0 0
BITMAP
1900
3980
3900
5900
5A00
4A00
CA00
8C00
8400
ENDCHAR
STARTCHAR O
ENCODING 79
SWIDTH 655 0
DWIDTH 7 0
BBX 6 9 1 0
BITMAP
1C
24
44
C4
84
8C
88
90
E0
ENDCHAR
STARTCHAR P
ENCODING 80
SWIDTH 553 0
DWIDTH 6 0
BBX 7 9 0 0
BITMAP
3C
62
32
26
2C
78
40
C0
80
ENDCHAR
STARTCHAR Q
ENCODING 81
SWIDTH 655 0
DWIDTH 7 0
BBX 7 11 1 -2
BITMAP
1C
64
44
84
84
88
98
F0
E0
18
0E
ENDCHAR
STARTCHAR R
ENCODING 82
SWIDTH 623 0
DWIDTH 7 0
BBX 7 9 0 0
BITMAP
3C
42
32
26
2C
70
58
C8
8E
ENDCHAR
STARTCHAR S
ENCODING 83
SWIDTH 474 0
DWIDTH 5 0
BBX 6 9 0 0
BITMAP
18
24
64
6C
60
30
50
90
60
ENDCHAR
STARTCHAR T
ENCODING 84
SWIDTH 471 0
DWIDTH 5 0
BBX 6 9 1 0
BITMAP
FC
B0
20
20
20
40
40
40
80
ENDCHAR
STARTCHAR U
ENCODING 85
SWIDTH 624 0
DWIDTH 7 0
BBX 8 9 0 0
BITMAP
33
32
22
26
44
4C
D4
9C
E6
ENDCHAR
STARTCHAR V
ENCODING 86
SWIDTH 587 0
DWIDTH 6 0
BBX 7 9 1 0
BITMAP
E6
22
66
44
48
90
A0
C0
C0
ENDCHAR
STARTCHAR W
ENCODING 87
SWIDTH 941 0
DWIDTH 10 0
BBX 10 9 1 0
BITMAP
E0C0
2240
6440
4C40
D880
A880
A900
C900
8E00
ENDCHAR
STARTCHAR X
ENCODING 88
SWIDTH 552 0
DWIDTH 6 0
BBX 9 9 -1 0
BITMAP
0980
1A00
1E00
1C00
0800
1800
1800
2C00
C600
ENDCHAR
STARTCHAR Y
ENCODING 89
SWIDTH 580 0
DWIDTH 6 0
BBX 8 12 0 -3
BITMAP
33
32
22
24
44
4C
D8
98
E8
10
20
40
ENDCHAR
STARTCHAR Z
ENCODING 90
SWIDTH 501 0
DWIDTH 6 0
BBX 7 9 0 0
BITMAP
7E
04
08
18
30
60
40
F8
88
ENDCHAR
STARTCHAR bracketleft
ENCODING 91
SWIDTH 396 0
DWIDTH 4 0
BBX 6 13 0 -2
BITMAP
0C
18
10
10
30
20
20
20
40
40
40
80
C0
ENDCHAR
STARTCHAR backslash
ENCODING 92
SWIDTH 464 0
DWIDTH 5 0
BBX 3 13 1 -2
BITMAP
80
80
80
80
80
40
40
40
40
20
20
20
20
ENDCHAR
STARTCHAR bracketright
ENCODING 93
SWIDTH 394 0
DWIDTH 4 0
BBX 6 13 -1 -2
BITMAP
0C
04
0C
08
08
08
10
10
10
20
20
20
C0
ENDCHAR
STARTCHAR asciicircum
ENCODING 94
SWIDTH 540 0
DWIDTH 6 0
BBX 5 5 1 4
BITMAP
20
20
50
50
88
ENDCHAR
STARTCHAR underscore
ENCODING 95
SWIDTH 530 0
DWIDTH 6 0
BBX 7 1 -2 -2
BITMAP
FE
ENDCHAR
STARTCHAR grave
ENCODING 96
SWIDTH 219 0
DWIDTH 2 0
BBX 2 3 0 6
BITMAP
C0
C0
40
ENDCHAR
STARTCHAR a
ENCODING 97
SWIDTH 541 0
DWIDTH 6 0
BBX 6 6 0 0
BITMAP
3C
6C
48
D8
D8
6C
ENDCHAR
STARTCHAR b
ENCODING 98
SWIDTH 525 0
DWIDTH 6 0
BBX 5 10 0 0
BITMAP
20
20
20
20
58
68
48
48
98
60
ENDCHAR
STARTCHAR c
ENCODING 99
SWIDTH 465 0
DWIDTH 5 0
BBX 5 6 0 0
BITMAP
38
68
58
C0
D0
70
ENDCHAR
STARTCHAR d
ENCODING 100
SWIDTH 557 0
DWIDTH 6 0
BBX 7 10 0 0
BITMAP
02
02
04
04
3C
6C
48
48
D8
6C
ENDCHAR
STARTCHAR e
ENCODING 101
SWIDTH 471 0
DWIDTH 5 0
BBX 5 6 0 0
BITMAP
38
68
58
F0
C8
70
ENDCHAR
STARTCHAR f
ENCODING 102
SWIDTH 393 0
DWIDTH 4 0
BBX 6 12 0 -2
BITMAP
0C
14
3C
20
20
78
60
40
40
40
80
80
ENDCHAR
STARTCHAR g
ENCODING 103
SWIDTH 526 0
DWIDTH 6 0
BBX 6 9 0 -3
BITMAP
3C
6C
48
C8
D8
70
10
20
40
ENDCHAR
STARTCHAR h
ENCODING 104
SWIDTH 555 0
DWIDTH 6 0
BBX 6 10 0 0
BITMAP
10
30
20
20
2C
5C
68
48
D8
8C
ENDCHAR
STARTCHAR i
ENCODING 105
SWIDTH 286 0
DWIDTH 3 0
BBX 4 9 0 0
BITMAP
30
20
00
60
60
40
40
80
C0
ENDCHAR
STARTCHAR j
ENCODING 106
SWIDTH 281 0
DWIDTH 3 0
BBX 5 12 -2 -3
BITMAP
08
08
00
18
18
10
10
10
20
20
40
80
ENDCHAR
STARTCHAR k
ENCODING 107
SWIDTH 497 0
DWIDTH 5 0
BBX 6 10 0 0
BITMAP
10
30
20
20
2C
48
50
60
F0
98
ENDCHAR
STARTCHAR l
ENCODING 108
SWIDTH 279 0
DWIDTH 3 0
BBX 4 10 0 0
BITMAP
30
20
20
20
60
40
40
40
C0
40
ENDCHAR
STARTCHAR m
ENCODING 109
SWIDTH 814 0
DWIDTH 9 0
BBX 9 6 0 0
BITMAP
6D00
7B80
6D00
4B00
DA00
9300
ENDCHAR
STARTCHAR n
ENCODING 110
SWIDTH 561 0
DWIDTH 6 0
BBX 6 6 0 0
BITMAP
6C
7C
68
48
D8
8C
ENDCHAR
STARTCHAR o
ENCODING 111
SWIDTH 514 0
DWIDTH 6 0
BBX 5 6 0 0
BITMAP
38
68
48
C8
D0
70
ENDCHAR
STARTCHAR p
ENCODING 112
SWIDTH 550 0
DWIDTH 6 0
BBX 7 9 -1 -3
BITMAP
2C
36
26
24
6C
78
40
40
80
ENDCHAR
STARTCHAR q
ENCODING 113
SWIDTH 533 0
DWIDTH 6 0
BBX 6 9 0 -3
BITMAP
3C
6C
48
48
D8
70
10
10
10
ENDCHAR
STARTCHAR r
ENCODING 114
SWIDTH 407 0
DWIDTH 4 0
BBX 5 6 0 0
BITMAP
78
58
60
40
C0
80
ENDCHAR
STARTCHAR s
ENCODING 115
SWIDTH 423 0
DWIDTH 5 0
BBX 5 6 0 0
BITMAP
30
48
60
20
A0
E0
ENDCHAR
STARTCHAR t
ENCODING 116
SWIDTH 358 0
DWIDTH 4 0
BBX 4 8 1 0
BITMAP
20
40
F0
C0
80
80
A0
C0
ENDCHAR
STARTCHAR u
ENCODING 117
SWIDTH 553 0
DWIDTH 6 0
BBX 6 6 0 0
BITMAP
64
6C
48
58
E8
DC
ENDCHAR
STARTCHAR v
ENCODING 118
SWIDTH 510 0
DWIDTH 6 0
BBX 5 6 0 0
BITMAP
68
68
48
48
D0
E0
ENDCHAR
STARTCHAR w
ENCODING 119
SWIDTH 750 0
DWIDTH 8 0
BBX 8 6 0 0
BITMAP
65
29
49
59
FA
CC
ENDCHAR
STARTCHAR x
ENCODING 120
SWIDTH 467 0
DWIDTH 5 0
BBX 6 6 0 0
BITMAP
4C
50
60
20
60
B8
ENDCHAR
STARTCHAR y
ENCODING 121
SWIDTH 549 0
DWIDTH 6 0
BBX 6 9 0 -3
BITMAP
64
6C
48
58
E8
D0
10
20
40
ENDCHAR
STARTCHAR z
ENCODING 122
SWIDTH 430 0
DWIDTH 5 0
BBX 5 6 0 0
BITMAP
78
18
30
60
C0
F0
ENDCHAR
STARTCHAR braceleft
ENCODING 123
SWIDTH 424 0
DWIDTH 5 0
BBX 5 13 1 -2
BITMAP
18
10
30
20
20
60
C0
40
40
80
80
80
80
ENDCHAR
STARTCHAR bar
ENCODING 124
SWIDTH 306 0
DWIDTH 3 0
BBX 1 13 1 -2
BITMAP
80
80
80
80
80
80
80
80
80
80
80
80
80
ENDCHAR
STARTCHAR braceright
ENCODING 125
SWIDTH 424 0
DWIDTH 5 0
BBX 6 13 -1 -2
BITMAP
0C
04
0C
08
08
08
18
10
20
20
20
60
C0
ENDCHAR
STARTCHAR asciitilde
ENCODING 126
SWIDTH 624 0
DWIDTH 7 0
BBX 6 3 1 3
BITMAP
64
A4
98
ENDCHAR
STARTCHAR nonbreakingspace
ENCODING 160
SWIDTH 293 0
DWIDTH 3 0
BBX 1 1 0 0
BITMAP
00
ENDCHAR
STARTCHAR exclamdown
ENCODING 161
SWIDTH 417 0
DWIDTH 5 0
BBX 4 10 0 -3
BITMAP
10
30
00
20
40
40
40
C0
C0
40
ENDCHAR
STARTCHAR cent
ENCODING 162
SWIDTH 487 0
DWIDTH 5 0
BBX 4 9 1 0
BITMAP
10
10
70
D0
90
80
90
E0
80
ENDCHAR
STARTCHAR sterling
ENCODING 163
SWIDTH 665 0
DWIDTH 7 0
BBX 7 9 0 0
BITMAP
06
0A
1A
16
78
20
E0
B2
DC
ENDCHAR
STARTCHAR currency
ENCODING 164
SWIDTH 572 0
DWIDTH 6 0
BBX 6 8 1 0
BITMAP
40
7C
58
D8
90
90
F0
90
ENDCHAR
STARTCHAR yen
ENCODING 165
SWIDTH 583 0
DWIDTH 6 0
BBX 7 9 1 0
BITMAP
C6
4C
48
30
30
F0
20
F0
40
ENDCHAR
STARTCHAR brokenbar
ENCODING 166
SWIDTH 292 0
DWIDTH 3 0
BBX 1 13 1 -2
BITMAP
80
80
80
80
80
80
00
80
80
80
80
80
80
ENDCHAR
STARTCHAR section
ENCODING 167
SWIDTH 583 0
DWIDTH 6 0
BBX 7 13 0 -3
BITMAP
0C
12
16
14
10
78
48
48
68
30
90
90
60
ENDCHAR
STARTCHAR dieresis
ENCODING 168
SWIDTH 412 0
DWIDTH 5 0
BBX 5 2 0 7
BITMAP
D8
50
ENDCHAR
STARTCHAR copyright
ENCODING 169
SWIDTH 871 0
DWIDTH 10 0
BBX 8 9 1 0
BITMAP
1E
6F
55
AD
A1
A5
9A
C6
78
ENDCHAR
STARTCHAR ordfeminine
ENCODING 170
SWIDTH 564 0
DWIDTH 6 0
BBX 5 6 1 3
BITMAP
38
48
50
90
B0
58
ENDCHAR
STARTCHAR guillemotleft
ENCODING 171
SWIDTH 662 0
DWIDTH 7 0
BBX 6 5 1 1
BITMAP
24
D8
B0
58
48
ENDCHAR
STARTCHAR logicalnot
ENCODING 172
SWIDTH 729 0
DWIDTH 8 0
BBX 6 4 1 1
BITMAP
FC
04
04
04
ENDCHAR
STARTCHAR uni00AD
ENCODING 173
SWIDTH 833 0
DWIDTH 9 0
BBX 1 1 0 0
BITMAP
00
ENDCHAR
STARTCHAR registered
ENCODING 174
SWIDTH 742 0
DWIDTH 8 0
BBX 7 8 1 1
BITMAP
3C
52
AA
AA
B2
AC
84
78
ENDCHAR
STARTCHAR macron
ENCODING 175
SWIDTH 392 0
DWIDTH 4 0
BBX 4 1 1 7
BITMAP
F0
ENDCHAR
STARTCHAR degree
ENCODING 176
SWIDTH 405 0
DWIDTH 4 0
BBX 4 4 1 5
BITMAP
70
90
B0
60
ENDCHAR
STARTCHAR plusminus
ENCODING 177
SWIDTH 617 0
DWIDTH 7 0
BBX 5 8 1 0
BITMAP
20
20
20
F8
20
20
00
F8
ENDCHAR
STARTCHAR twosuperior
ENCODING 178
SWIDTH 458 0
DWIDTH 5 0
BBX 4 6 1 3
BITMAP
70
50
50
20
C0
E0
ENDCHAR
STARTCHAR threesuperior
ENCODING 179
SWIDTH 430 0
DWIDTH 5 0
BBX 4 7 1 2
BITMAP
70
50
50
60
20
A0
C0
ENDCHAR
STARTCHAR acute
ENCODING 180
SWIDTH 322 0
DWIDTH 4 0
BBX 2 3 1 6
BITMAP
40
40
80
ENDCHAR
STARTCHAR mu
ENCODING 181
SWIDTH 618 0
DWIDTH 7 0
BBX 7 9 0 -3
BITMAP
26
24
4C
48
D8
EC
80
80
80
ENDCHAR
STARTCHAR paragraph
ENCODING 182
SWIDTH 739 0
DWIDTH 8 0
BBX 9 11 0 -1
BITMAP
0780
1D00
3D00
3900
3900
1A00
0A00
1A00
5400
9400
6400
ENDCHAR
STARTCHAR periodcentered
ENCODING 183
SWIDTH 353 0
DWIDTH 4 0
BBX 2 2 1 3
BITMAP
C0
40
ENDCHAR
STARTCHAR cedilla
ENCODING 184
SWIDTH 301 0
DWIDTH 3 0
BBX 2 3 1 -3
BITMAP
80
40
80
ENDCHAR
STARTCHAR onesuperior
ENCODING 185
SWIDTH 403 0
DWIDTH 4 0
BBX 3 6 1 3
BITMAP
20
E0
20
60
40
80
ENDCHAR
STARTCHAR ordmasculine
ENCODING 186
SWIDTH 498 0
DWIDTH 5 0
BBX 5 6 1 3
BITMAP
30
50
D8
90
90
60
ENDCHAR
STARTCHAR guillemotright
ENCODING 187
SWIDTH 665 0
DWIDTH 7 0
BBX 6 5 1 1
BITMAP
90
48
6C
90
A0
ENDCHAR
STARTCHAR onequarter
ENCODING 188
SWIDTH 988 0
DWIDTH 11 0
BBX 9 10 1 0
BITMAP
0200
2200
E400
2C00
4A00
5280
9480
2780
2100
4200
ENDCHAR
STARTCHAR onehalf
ENCODING 189
SWIDTH 988 0
DWIDTH 11 0
BBX 9 10 1 0
BITMAP
0200
2400
E400
2800
4B80
5280
9080
2100
2200
4700
ENDCHAR
STARTCHAR threequarters
ENCODING 190
SWIDTH 1007 0
DWIDTH 11 0
BBX 10 10 0 0
BITMAP
0080
3900
6900
1200
3680
D540
6940
09C0
1080
1080
ENDCHAR
STARTCHAR questiondown
ENCODING 191
SWIDTH 516 0
DWIDTH 6 0
BBX 5 9 0 -2
BITMAP
08
18
10
10
20
40
90
90
60
ENDCHAR
STARTCHAR Agrave
ENCODING 192
SWIDTH 615 0
DWIDTH 7 0
BBX 8 12 -1 0
BITMAP
02
02
01
03
05
0A
12
1F
26
24
44
C6
ENDCHAR
STARTCHAR Aacute
ENCODING 193
SWIDTH 615 0
DWIDTH 7 0
BBX 9 11 -1 0
BITMAP
0180
0200
0300
0500
0A00
1200
1F00
2600
2400
4400
C600
ENDCHAR
STARTCHAR Acircumflex
ENCODING 194
SWIDTH 615 0
DWIDTH 7 0
BBX 9 12 -1 0
BITMAP
0100
0300
0480
0300
0500
0A00
1200
1F00
2600
2400
4400
C600
ENDCHAR
STARTCHAR Atilde
ENCODING 195
SWIDTH 615 0
DWIDTH 7 0
BBX 9 11 -1 0
BITMAP
0780
0000
0300
0500
0A00
1200
1F00
2600
2400
4400
C600
ENDCHAR
STARTCHAR Adieresis
ENCODING 196
SWIDTH 615 0
DWIDTH 7 0
BBX 9 12 -1 0
BITMAP
0480
0680
0000
0300
0500
0A00
1200
1F00
2600
2400
4400
C600
ENDCHAR
STARTCHAR Aring
ENCODING 197
SWIDTH 615 0
DWIDTH 7 0
BBX 9 12 -1 0
BITMAP
0100
0280
0280
0300
0500
0A00
1200
3F00
2400
2400
4400
C600
ENDCHAR
STARTCHAR AE
ENCODING 198
SWIDTH 878 0
DWIDTH 10 0
BBX 12 9 -1 0
BITMAP
03E0
0510
0B20
1240
3F80
2300
2240
42C0
C380
ENDCHAR
STARTCHAR Ccedilla
ENCODING 199
SWIDTH 533 0
DWIDTH 6 0
BBX 6 12 1 -3
BITMAP
18
64
4C
D8
80
80
80
90
F0
40
40
80
ENDCHAR
STARTCHAR Egrave
ENCODING 200
SWIDTH 509 0
DWIDTH 6 0
BBX 6 12 0 0
BITMAP
08
08
04
1C
24
6C
48
30
60
40
C8
70
ENDCHAR
STARTCHAR Eacute
ENCODING 201
SWIDTH 509 0
DWIDTH 6 0
BBX 7 11 0 0
BITMAP
06
08
1C
24
6C
48
30
60
40
C8
70
ENDCHAR
STARTCHAR Ecircumflex
ENCODING 202
SWIDTH 509 0
DWIDTH 6 0
BBX 7 12 0 0
BITMAP
04
0C
12
1C
24
6C
48
30
60
40
C8
70
ENDCHAR
STARTCHAR Edieresis
ENCODING 203
SWIDTH 509 0
DWIDTH 6 0
BBX 7 12 0 0
BITMAP
12
1E
00
1C
24
6C
48
30
60
40
C8
70
ENDCHAR
STARTCHAR Igrave
ENCODING 204
SWIDTH 327 0
DWIDTH 4 0
BBX 4 12 0 0
BITMAP
20
20
10
70
10
30
20
20
20
40
40
80
ENDCHAR
STARTCHAR Iacute
ENCODING 205
SWIDTH 327 0
DWIDTH 4 0
BBX 5 11 0 0
BITMAP
08
10
70
10
30
20
20
20
40
40
80
ENDCHAR
STARTCHAR Icircumflex
ENCODING 206
SWIDTH 327 0
DWIDTH 4 0
BBX 5 12 0 0
BITMAP
10
18
28
70
10
30
20
20
20
40
40
80
ENDCHAR
STARTCHAR Idieresis
ENCODING 207
SWIDTH 327 0
DWIDTH 4 0
BBX 6 12 0 0
BITMAP
28
6C
00
70
10
30
20
20
20
40
40
80
ENDCHAR
STARTCHAR Eth
ENCODING 208
SWIDTH 630 0
DWIDTH 7 0
BBX 7 9 0 0
BITMAP
7C
12
22
F2
42
44
4C
D8
70
ENDCHAR
STARTCHAR Ntilde
ENCODING 209
SWIDTH 708 0
DWIDTH 8 0
BBX 9 11 0 0
BITMAP
0780
0000
1900
3980
3900
5900
5A00
4A00
CA00
8C00
8400
ENDCHAR
STARTCHAR Ograve
ENCODING 210
SWIDTH 655 0
DWIDTH 7 0
BBX 6 12 1 0
BITMAP
08
08
04
1C
24
44
C4
84
8C
88
90
E0
ENDCHAR
STARTCHAR Oacute
ENCODING 211
SWIDTH 655 0
DWIDTH 7 0
BBX 7 11 1 0
BITMAP
06
08
1C
24
44
C4
84
8C
88
90
E0
ENDCHAR
STARTCHAR Ocircumflex
ENCODING 212
SWIDTH 655 0
DWIDTH 7 0
BBX 7 12 1 0
BITMAP
04
0C
12
1C
24
44
C4
84
8C
88
90
E0
ENDCHAR
STARTCHAR Otilde
ENCODING 213
SWIDTH 655 0
DWIDTH 7 0
BBX 7 11 1 0
BITMAP
1E
00
1C
24
44
C4
84
8C
88
90
E0
ENDCHAR
STARTCHAR Odieresis
ENCODING 214
SWIDTH 655 0
DWIDTH 7 0
BBX 7 12 1 0
BITMAP
12
1E
00
1C
24
44
C4
84
8C
88
90
E0
ENDCHAR
STARTCHAR multiply
ENCODING 215
SWIDTH 573 0
DWIDTH 6 0
BBX 5 5 1 2
BITMAP
88
50
20
50
98
ENDCHAR
STARTCHAR Oslash
ENCODING 216
SWIDTH 655 0
DWIDTH 7 0
BBX 7 11 1 -1
BITMAP
02
1C
2A
6A
56
D4
A4
AC
D8
70
80
ENDCHAR
STARTCHAR Ugrave
ENCODING 217
SWIDTH 624 0
DWIDTH 7 0
BBX 8 12 0 0
BITMAP
08
08
04
33
32
22
26
44
4C
D4
9C
E6
ENDCHAR
STARTCHAR Uacute
ENCODING 218
SWIDTH 624 0
DWIDTH 7 0
BBX 8 11 0 0
BITMAP
02
04
33
32
22
26
44
4C
D4
9C
E6
ENDCHAR
STARTCHAR Ucircumflex
ENCODING 219
SWIDTH 624 0
DWIDTH 7 0
BBX 8 12 0 0
BITMAP
04
0E
12
33
32
22
26
44
4C
D4
9C
E6
ENDCHAR
STARTCHAR Udieresis
ENCODING 220
SWIDTH 624 0
DWIDTH 7 0
BBX 8 12 0 0
BITMAP
0A
1A
00
33
32
22
26
44
4C
D4
9C
E6
ENDCHAR
STARTCHAR Yacute
ENCODING 221
SWIDTH 580 0
DWIDTH 6 0
BBX 8 14 0 -3
BITMAP
06
04
33
32
22
24
44
4C
D8
98
E8
10
20
40
ENDCHAR
STARTCHAR Thorn
ENCODING 222
SWIDTH 527 0
DWIDTH 6 0
BBX 7 9 -1 0
BITMAP
30
10
1C
12
32
24
38
40
C0
ENDCHAR
STARTCHAR germandbls
ENCODING 223
SWIDTH 520 0
DWIDTH 6 0
BBX 7 12 -1 -2
BITMAP
0C
12
12
14
2C
28
28
24
54
5C
40
80
ENDCHAR
STARTCHAR agrave
ENCODING 224
SWIDTH 541 0
DWIDTH 6 0
BBX 6 9 0 0
BITMAP
10
10
08
3C
6C
48
D8
D8
6C
ENDCHAR
STARTCHAR aacute
ENCODING 225
SWIDTH 541 0
DWIDTH 6 0
BBX 6 9 0 0
BITMAP
08
08
10
3C
6C
48
D8
D8
6C
ENDCHAR
STARTCHAR acircumflex
ENCODING 226
SWIDTH 541 0
DWIDTH 6 0
BBX 6 9 0 0
BITMAP
08
14
24
3C
6C
48
D8
D8
6C
ENDCHAR
STARTCHAR atilde
ENCODING 227
SWIDTH 541 0
DWIDTH 6 0
BBX 6 9 0 0
BITMAP
1C
2C
00
3C
6C
48
D8
D8
6C
ENDCHAR
STARTCHAR adieresis
ENCODING 228
SWIDTH 541 0
DWIDTH 6 0
BBX 6 9 0 0
BITMAP
34
24
00
3C
6C
48
D8
D8
6C
ENDCHAR
STARTCHAR aring
ENCODING 229
SWIDTH 541 0
DWIDTH 6 0
BBX 6 9 0 0
BITMAP
1C
14
18
3C
6C
48
D8
D8
6C
ENDCHAR
STARTCHAR ae
ENCODING 230
SWIDTH 769 0
DWIDTH 8 0
BBX 8 6 0 0
BITMAP
3F
6D
49
DE
D9
6E
ENDCHAR
STARTCHAR ccedilla
ENCODING 231
SWIDTH 465 0
DWIDTH 5 0
BBX 5 9 0 -3
BITMAP
38
68
58
C0
D0
70
20
60
40
ENDCHAR
STARTCHAR egrave
ENCODING 232
SWIDTH 471 0
DWIDTH 5 0
BBX 5 9 0 0
BITMAP
10
10
10
38
68
58
F0
C8
70
ENDCHAR
STARTCHAR eacute
ENCODING 233
SWIDTH 471 0
DWIDTH 5 0
BBX 5 9 0 0
BITMAP
08
10
20
38
68
58
F0
C8
70
ENDCHAR
STARTCHAR ecircumflex
ENCODING 234
SWIDTH 471 0
DWIDTH 5 0
BBX 5 9 0 0
BITMAP
08
18
28
38
68
58
F0
C8
70
ENDCHAR
STARTCHAR edieresis
ENCODING 235
SWIDTH 471 0
DWIDTH 5 0
BBX 6 9 0 0
BITMAP
2C
28
00
38
68
58
F0
C8
70
ENDCHAR
STARTCHAR igrave
ENCODING 236
SWIDTH 286 0
DWIDTH 3 0
BBX 3 9 0 0
BITMAP
20
20
20
60
60
40
40
80
C0
ENDCHAR
STARTCHAR iacute
ENCODING 237
SWIDTH 286 0
DWIDTH 3 0
BBX 4 9 0 0
BITMAP
10
20
40
60
60
40
40
80
C0
ENDCHAR
STARTCHAR icircumflex
ENCODING 238
SWIDTH 286 0
DWIDTH 3 0
BBX 4 9 0 0
BITMAP
10
30
50
60
60
40
40
80
C0
ENDCHAR
STARTCHAR idieresis
ENCODING 239
SWIDTH 286 0
DWIDTH 3 0
BBX 5 9 0 0
BITMAP
58
50
00
60
60
40
40
80
C0
ENDCHAR
STARTCHAR eth
ENCODING 240
SWIDTH 524 0
DWIDTH 6 0
BBX 7 10 0 0
BITMAP
08
04
0E
14
3C
6C
48
C8
D0
60
ENDCHAR
STARTCHAR ntilde
ENCODING 241
SWIDTH 561 0
DWIDTH 6 0
BBX 6 9 0 0
BITMAP
1C
2C
00
6C
7C
68
48
D8
8C
ENDCHAR
STARTCHAR ograve
ENCODING 242
SWIDTH 514 0
DWIDTH 6 0
BBX 5 9 0 0
BITMAP
10
10
08
38
68
48
C8
D0
70
ENDCHAR
STARTCHAR oacute
ENCODING 243
SWIDTH 514 0
DWIDTH 6 0
BBX 5 9 0 0
BITMAP
08
08
10
38
68
48
C8
D0
70
ENDCHAR
STARTCHAR ocircumflex
ENCODING 244
SWIDTH 514 0
DWIDTH 6 0
BBX 6 9 0 0
BITMAP
08
14
24
38
68
48
C8
D0
70
ENDCHAR
STARTCHAR otilde
ENCODING 245
SWIDTH 514 0
DWIDTH 6 0
BBX 6 9 0 0
BITMAP
1C
2C
00
38
68
48
C8
D0
70
ENDCHAR
STARTCHAR odieresis
ENCODING 246
SWIDTH 514 0
DWIDTH 6 0
BBX 6 9 0 0
BITMAP
34
14
00
38
68
48
C8
D0
70
ENDCHAR
STARTCHAR divide
ENCODING 247
SWIDTH 617 0
DWIDTH 7 0
BBX 5 6 1 2
BITMAP
20
20
00
F8
00
20
ENDCHAR
STARTCHAR oslash
ENCODING 248
SWIDTH 514 0
DWIDTH 6 0
BBX 6 8 0 -1
BITMAP
0C
38
78
58
E8
D0
70
80
ENDCHAR
STARTCHAR ugrave
ENCODING 249
SWIDTH 553 0
DWIDTH 6 0
BBX 6 9 0 0
BITMAP
18
08
08
64
6C
48
58
AC
D8
ENDCHAR
STARTCHAR uacute
ENCODING 250
SWIDTH 553 0
DWIDTH 6 0
BBX 6 9 0 0
BITMAP
04
08
10
64
6C
48
58
E8
DC
ENDCHAR
STARTCHAR ucircumflex
ENCODING 251
SWIDTH 553 0
DWIDTH 6 0
BBX 6 9 0 0
BITMAP
04
1C
24
64
6C
48
58
E8
DC
ENDCHAR
STARTCHAR udieresis
ENCODING 252
SWIDTH 553 0
DWIDTH 6 0
BBX 7 9 0 0
BITMAP
16
14
00
64
6C
48
58
E8
DC
ENDCHAR
STARTCHAR yacute
ENCODING 253
SWIDTH 549 0
DWIDTH 6 0
BBX 6 12 0 -3
BITMAP
08
08
10
64
6C
48
58
E8
D0
10
20
40
ENDCHAR
STARTCHAR thorn
ENCODING 254
SWIDTH 552 0
DWIDTH 6 0
BBX 7 13 -1 -3
BITMAP
08
18
10
10
1C
36
26
24
6C
78
40
C0
80
ENDCHAR
STARTCHAR ydieresis
ENCODING 255
SWIDTH 549 0
DWIDTH 6 0
BBX 6 12 0 -3
BITMAP
34
24
00
64
6C
48
58
E8
D0
10
20
40
ENDCHAR
STARTCHAR Amacron
ENCODING 256
SWIDTH 615 0
DWIDTH 7 0
BBX 9 11 -1 0
BITMAP
0780
0000
0300
0500
0A00
1200
1F00
2600
2400
4400
C600
ENDCHAR
STARTCHAR amacron
ENCODING 257
SWIDTH 543 0
DWIDTH 6 0
BBX 6 8 0 0
BITMAP
3C
00
3C
6C
48
D8
D8
6C
ENDCHAR
STARTCHAR Abreve
ENCODING 258
SWIDTH 615 0
DWIDTH 7 0
BBX 9 12 -1 0
BITMAP
0280
0300
0000
0300
0500
0A00
1200
1F00
2600
2400
4400
C600
ENDCHAR
STARTCHAR abreve
ENCODING 259
SWIDTH 543 0
DWIDTH 6 0
BBX 6 9 0 0
BITMAP
14
18
00
3C
6C
48
D8
D8
6C
ENDCHAR
STARTCHAR Aogonek
ENCODING 260
SWIDTH 615 0
DWIDTH 7 0
BBX 8 12 -1 -3
BITMAP
03
05
0A
12
1F
26
24
44
C6
04
08
0C
ENDCHAR
STARTCHAR aogonek
ENCODING 261
SWIDTH 541 0
DWIDTH 6 0
BBX 6 9 0 -3
BITMAP
3C
6C
48
D8
D8
6C
08
10
18
ENDCHAR
STARTCHAR Cacute
ENCODING 262
SWIDTH 533 0
DWIDTH 6 0
BBX 6 11 1 0
BITMAP
04
08
18
64
4C
D8
80
80
80
90
F0
ENDCHAR
STARTCHAR cacute
ENCODING 263
SWIDTH 468 0
DWIDTH 5 0
BBX 6 9 0 0
BITMAP
04
08
10
38
68
58
C0
D0
70
ENDCHAR
STARTCHAR Ccircumflex
ENCODING 264
SWIDTH 533 0
DWIDTH 6 0
BBX 7 12 1 0
BITMAP
04
0C
16
18
64
4C
D8
80
80
80
90
F0
ENDCHAR
STARTCHAR ccircumflex
ENCODING 265
SWIDTH 468 0
DWIDTH 5 0
BBX 6 9 0 0
BITMAP
08
14
24
38
68
58
C0
D0
70
ENDCHAR
STARTCHAR Cdotaccent
ENCODING 266
SWIDTH 533 0
DWIDTH 6 0
BBX 6 12 1 0
BITMAP
08
08
00
18
64
4C
D8
80
80
80
90
F0
ENDCHAR
STARTCHAR cdotaccent
ENCODING 267
SWIDTH 468 0
DWIDTH 5 0
BBX 5 9 0 0
BITMAP
18
08
00
38
68
58
C0
D0
70
ENDCHAR
STARTCHAR Ccaron
ENCODING 268
SWIDTH 533 0
DWIDTH 6 0
BBX 7 12 1 0
BITMAP
12
0E
00
18
64
4C
D8
80
80
80
90
F0
ENDCHAR
STARTCHAR ccaron
ENCODING 269
SWIDTH 468 0
DWIDTH 5 0
BBX 7 9 0 0
BITMAP
12
1C
00
38
68
58
C0
D0
70
ENDCHAR
STARTCHAR Dcaron
ENCODING 270
SWIDTH 630 0
DWIDTH 7 0
BBX 6 12 1 0
BITMAP
04
1C
00
F8
84
64
44
C4
88
98
B0
E0
ENDCHAR
STARTCHAR dcaron
ENCODING 271
SWIDTH 557 0
DWIDTH 6 0
BBX 9 10 0 0
BITMAP
0280
0280
0500
0400
3C00
6C00
4800
4800
D800
6C00
ENDCHAR
STARTCHAR Dcroat
ENCODING 272
SWIDTH 630 0
DWIDTH 7 0
BBX 7 9 0 0
BITMAP
7C
42
32
22
F2
44
4C
D8
70
ENDCHAR
STARTCHAR dcroat
ENCODING 273
SWIDTH 557 0
DWIDTH 6 0
BBX 7 10 0 0
BITMAP
02
02
0E
04
3C
6C
48
48
D8
6C
ENDCHAR
STARTCHAR Emacron
ENCODING 274
SWIDTH 509 0
DWIDTH 6 0
BBX 7 11 0 0
BITMAP
1E
00
1C
24
6C
48
30
60
40
C8
70
ENDCHAR
STARTCHAR emacron
ENCODING 275
SWIDTH 471 0
DWIDTH 5 0
BBX 6 8 0 0
BITMAP
3C
00
38
68
58
F0
C8
70
ENDCHAR
STARTCHAR Ebreve
ENCODING 276
SWIDTH 509 0
DWIDTH 6 0
BBX 7 12 0 0
BITMAP
0A
0C
00
1C
24
6C
48
30
60
40
C8
70
ENDCHAR
STARTCHAR ebreve
ENCODING 277
SWIDTH 471 0
DWIDTH 5 0
BBX 6 9 0 0
BITMAP
24
18
00
38
68
58
F0
C8
70
ENDCHAR
STARTCHAR Edotaccent
ENCODING 278
SWIDTH 509 0
DWIDTH 6 0
BBX 6 12 0 0
BITMAP
08
08
00
1C
24
6C
48
30
60
40
C8
70
ENDCHAR
STARTCHAR edotaccent
ENCODING 279
SWIDTH 471 0
DWIDTH 5 0
BBX 5 9 0 0
BITMAP
18
10
00
38
68
58
F0
C8
70
ENDCHAR
STARTCHAR Eogonek
ENCODING 280
SWIDTH 509 0
DWIDTH 6 0
BBX 6 12 0 -3
BITMAP
1C
24
6C
48
30
60
40
C8
70
20
40
60
ENDCHAR
STARTCHAR eogonek
ENCODING 281
SWIDTH 471 0
DWIDTH 5 0
BBX 5 9 0 -3
BITMAP
38
68
58
F0
C8
70
20
40
60
ENDCHAR
STARTCHAR Ecaron
ENCODING 282
SWIDTH 509 0
DWIDTH 6 0
BBX 7 12 0 0
BITMAP
12
0E
00
1C
24
6C
48
30
60
40
C8
70
ENDCHAR
STARTCHAR ecaron
ENCODING 283
SWIDTH 471 0
DWIDTH 5 0
BBX 6 9 0 0
BITMAP
34
18
00
38
68
58
F0
C8
70
ENDCHAR
STARTCHAR Gcircumflex
ENCODING 284
SWIDTH 598 0
DWIDTH 7 0
BBX 6 12 1 0
BITMAP
04
0C
14
18
64
4C
D8
80
BC
90
90
E0
ENDCHAR
STARTCHAR gcircumflex
ENCODING 285
SWIDTH 526 0
DWIDTH 6 0
BBX 6 12 0 -3
BITMAP
08
14
24
3C
6C
48
C8
D8
70
10
20
40
ENDCHAR
STARTCHAR Gbreve
ENCODING 286
SWIDTH 598 0
DWIDTH 7 0
BBX 7 12 1 0
BITMAP
12
0C
00
18
64
4C
D8
80
BC
90
90
E0
ENDCHAR
STARTCHAR gbreve
ENCODING 287
SWIDTH 526 0
DWIDTH 6 0
BBX 6 12 0 -3
BITMAP
14
18
00
3C
6C
48
C8
D8
70
10
20
40
ENDCHAR
STARTCHAR Gdotaccent
ENCODING 288
SWIDTH 598 0
DWIDTH 7 0
BBX 6 12 1 0
BITMAP
08
08
00
18
64
4C
D8
80
BC
90
90
E0
ENDCHAR
STARTCHAR gdotaccent
ENCODING 289
SWIDTH 526 0
DWIDTH 6 0
BBX 6 12 0 -3
BITMAP
18
08
00
3C
6C
48
C8
D8
70
10
20
40
ENDCHAR
STARTCHAR Gcommaaccent
ENCODING 290
SWIDTH 598 0
DWIDTH 7 0
BBX 6 12 1 -3
BITMAP
18
64
4C
D8
80
BC
90
90
E0
80
C0
80
ENDCHAR
STARTCHAR gcommaaccent
ENCODING 291
SWIDTH 526 0
DWIDTH 6 0
BBX 6 12 0 -3
BITMAP
08
08
00
3C
6C
48
C8
D8
70
10
20
40
ENDCHAR
STARTCHAR Hcircumflex
ENCODING 292
SWIDTH 668 0
DWIDTH 7 0
BBX 8 12 0 0
BITMAP
04
0C
12
71
33
22
22
7E
64
44
C4
8E
ENDCHAR
STARTCHAR hcircumflex
ENCODING 293
SWIDTH 555 0
DWIDTH 6 0
BBX 6 11 0 0
BITMAP
10
68
30
20
20
2C
5C
68
48
D8
9C
ENDCHAR
STARTCHAR Hbar
ENCODING 294
SWIDTH 668 0
DWIDTH 7 0
BBX 9 9 0 0
BITMAP
7100
3300
7F80
2200
7E00
6400
4400
C400
8E00
ENDCHAR
STARTCHAR hbar
ENCODING 295
SWIDTH 555 0
DWIDTH 6 0
BBX 6 10 0 0
BITMAP
10
10
78
20
2C
3C
68
48
D8
8C
ENDCHAR
STARTCHAR Itilde
ENCODING 296
SWIDTH 327 0
DWIDTH 4 0
BBX 6 11 0 0
BITMAP
7C
00
70
10
30
20
20
20
40
40
80
ENDCHAR
STARTCHAR itilde
ENCODING 297
SWIDTH 286 0
DWIDTH 3 0
BBX 5 9 0 0
BITMAP
68
B0
00
60
60
40
40
80
C0
ENDCHAR
STARTCHAR Imacron
ENCODING 298
SWIDTH 327 0
DWIDTH 4 0
BBX 5 11 0 0
BITMAP
78
00
70
10
30
20
20
20
40
40
80
ENDCHAR
STARTCHAR imacron
ENCODING 299
SWIDTH 286 0
DWIDTH 3 0
BBX 4 8 0 0
BITMAP
70
00
60
60
40
40
80
C0
ENDCHAR
STARTCHAR Ibreve
ENCODING 300
SWIDTH 327 0
DWIDTH 4 0
BBX 6 12 0 0
BITMAP
24
38
00
70
10
30
20
20
20
40
40
80
ENDCHAR
STARTCHAR ibreve
ENCODING 301
SWIDTH 286 0
DWIDTH 3 0
BBX 5 9 0 0
BITMAP
48
70
00
60
60
40
40
80
C0
ENDCHAR
STARTCHAR Iogonek
ENCODING 302
SWIDTH 327 0
DWIDTH 4 0
BBX 6 12 -2 -3
BITMAP
1C
04
0C
08
08
08
10
10
20
40
40
C0
ENDCHAR
STARTCHAR iogonek
ENCODING 303
SWIDTH 297 0
DWIDTH 3 0
BBX 4 12 0 -3
BITMAP
30
20
00
60
20
40
40
40
C0
40
80
C0
ENDCHAR
STARTCHAR Idotaccent
ENCODING 304
SWIDTH 327 0
DWIDTH 4 0
BBX 4 12 0 0
BITMAP
10
30
00
70
10
30
20
20
20
40
40
80
ENDCHAR
STARTCHAR dotlessi
ENCODING 305
SWIDTH 286 0
DWIDTH 3 0
BBX 3 6 0 0
BITMAP
60
60
40
40
80
C0
ENDCHAR
STARTCHAR IJ
ENCODING 306
SWIDTH 720 0
DWIDTH 8 0
BBX 8 12 0 -3
BITMAP
77
1D
31
23
23
22
46
44
84
08
18
20
ENDCHAR
STARTCHAR ij
ENCODING 307
SWIDTH 567 0
DWIDTH 6 0
BBX 6 12 0 -3
BITMAP
34
24
00
6C
6C
4C
48
88
D8
10
30
60
ENDCHAR
STARTCHAR Jcircumflex
ENCODING 308
SWIDTH 393 0
DWIDTH 4 0
BBX 8 15 -2 -3
BITMAP
02
06
09
1E
16
04
04
04
0C
08
18
10
30
20
C0
ENDCHAR
STARTCHAR jcircumflex
ENCODING 309
SWIDTH 282 0
DWIDTH 3 0
BBX 6 12 -2 -3
BITMAP
0C
34
00
18
18
10
10
10
20
20
40
C0
ENDCHAR
STARTCHAR Kcommaaccent
ENCODING 310
SWIDTH 616 0
DWIDTH 7 0
BBX 8 12 -1 -3
BITMAP
31
11
13
12
1C
38
2C
64
C7
10
30
20
ENDCHAR
STARTCHAR kcommaaccent
ENCODING 311
SWIDTH 497 0
DWIDTH 5 0
BBX 6 13 0 -3
BITMAP
10
30
20
20
2C
48
50
60
F0
98
40
40
40
ENDCHAR
STARTCHAR kgreenlandic
ENCODING 312
SWIDTH 497 0
DWIDTH 5 0
BBX 6 6 0 0
BITMAP
6C
68
58
60
F0
98
ENDCHAR
STARTCHAR Lacute
ENCODING 313
SWIDTH 517 0
DWIDTH 6 0
BBX 7 11 0 0
BITMAP
06
08
1C
14
24
2C
68
40
40
80
F8
ENDCHAR
STARTCHAR lacute
ENCODING 314
SWIDTH 279 0
DWIDTH 3 0
BBX 5 11 0 0
BITMAP
08
10
20
20
20
20
40
40
40
C0
C0
ENDCHAR
STARTCHAR Lcommaaccent
ENCODING 315
SWIDTH 517 0
DWIDTH 6 0
BBX 6 12 0 -3
BITMAP
1C
14
24
2C
68
40
40
80
F8
40
40
80
ENDCHAR
STARTCHAR lcommaaccent
ENCODING 316
SWIDTH 279 0
DWIDTH 3 0
BBX 4 13 0 -3
BITMAP
30
20
20
20
60
40
40
40
C0
40
40
C0
80
ENDCHAR
STARTCHAR Lcaron
ENCODING 317
SWIDTH 517 0
DWIDTH 6 0
BBX 8 12 0 0
BITMAP
01
01
01
1E
14
24
2C
68
40
40
80
F8
ENDCHAR
STARTCHAR lcaron
ENCODING 318
SWIDTH 467 0
DWIDTH 5 0
BBX 6 10 0 0
BITMAP
34
24
28
20
60
40
40
40
C0
40
ENDCHAR
STARTCHAR Ldot
ENCODING 319
SWIDTH 668 0
DWIDTH 7 0
BBX 8 9 0 0
BITMAP
1C
14
24
2C
6A
43
40
80
F8
ENDCHAR
STARTCHAR ldot
ENCODING 320
SWIDTH 489 0
DWIDTH 5 0
BBX 5 10 0 0
BITMAP
30
20
20
20
60
48
48
40
C0
40
ENDCHAR
STARTCHAR Lslash
ENCODING 321
SWIDTH 517 0
DWIDTH 6 0
BBX 6 9 0 0
BITMAP
1C
14
24
2C
68
F0
40
80
F8
ENDCHAR
STARTCHAR lslash
ENCODING 322
SWIDTH 279 0
DWIDTH 3 0
BBX 5 10 0 0
BITMAP
20
38
20
20
20
40
40
40
C0
C0
ENDCHAR
STARTCHAR Nacute
ENCODING 323
SWIDTH 708 0
DWIDTH 8 0
BBX 9 11 0 0
BITMAP
0100
0200
1900
3980
3900
5900
5A00
4A00
CA00
8C00
8400
ENDCHAR
STARTCHAR nacute
ENCODING 324
SWIDTH 561 0
DWIDTH 6 0
BBX 6 9 0 0
BITMAP
04
08
10
6C
7C
68
48
D8
8C
ENDCHAR
STARTCHAR Ncommaaccent
ENCODING 325
SWIDTH 708 0
DWIDTH 8 0
BBX 9 12 0 -3
BITMAP
1900
3980
3900
5900
5A00
4A00
CA00
8C00
8400
1000
1000
2000
ENDCHAR
STARTCHAR ncommaaccent
ENCODING 326
SWIDTH 561 0
DWIDTH 6 0
BBX 6 9 0 -3
BITMAP
6C
7C
68
48
D8
8C
40
60
40
ENDCHAR
STARTCHAR Ncaron
ENCODING 327
SWIDTH 708 0
DWIDTH 8 0
BBX 9 12 0 0
BITMAP
0080
0700
0000
1900
3980
3900
5900
5A00
4A00
CA00
8C00
8400
ENDCHAR
STARTCHAR ncaron
ENCODING 328
SWIDTH 561 0
DWIDTH 6 0
BBX 7 9 0 0
BITMAP
12
1C
00
6C
7C
68
48
D8
8C
ENDCHAR
STARTCHAR Eng
ENCODING 330
SWIDTH 698 0
DWIDTH 8 0
BBX 8 12 0 -3
BITMAP
19
31
31
51
59
5A
8A
8A
84
08
10
20
ENDCHAR
STARTCHAR eng
ENCODING 331
SWIDTH 561 0
DWIDTH 6 0
BBX 6 9 0 -3
BITMAP
6C
74
68
48
C8
90
10
20
40
ENDCHAR
STARTCHAR Omacron
ENCODING 332
SWIDTH 655 0
DWIDTH 7 0
BBX 7 11 1 0
BITMAP
1E
00
1C
24
44
C4
84
8C
88
90
E0
ENDCHAR
STARTCHAR omacron
ENCODING 333
SWIDTH 514 0
DWIDTH 6 0
BBX 6 8 0 0
BITMAP
3C
00
38
68
48
C8
D0
70
ENDCHAR
STARTCHAR Obreve
ENCODING 334
SWIDTH 655 0
DWIDTH 7 0
BBX 7 12 1 0
BITMAP
0A
0C
00
1C
24
44
C4
84
8C
88
90
E0
ENDCHAR
STARTCHAR obreve
ENCODING 335
SWIDTH 514 0
DWIDTH 6 0
BBX 6 9 0 0
BITMAP
14
18
00
38
68
48
C8
D0
70
ENDCHAR
STARTCHAR Ohungarumlaut
ENCODING 336
SWIDTH 655 0
DWIDTH 7 0
BBX 7 12 1 0
BITMAP
0A
0A
14
1C
24
44
C4
84
8C
88
90
E0
ENDCHAR
STARTCHAR ohungarumlaut
ENCODING 337
SWIDTH 514 0
DWIDTH 6 0
BBX 6 9 0 0
BITMAP
14
14
28
38
68
48
C8
D0
70
ENDCHAR
STARTCHAR OE
ENCODING 338
SWIDTH 900 0
DWIDTH 10 0
BBX 10 9 1 0
BITMAP
1DC0
3240
66C0
4480
C700
8600
8C00
8C80
7700
ENDCHAR
STARTCHAR oe
ENCODING 339
SWIDTH 777 0
DWIDTH 9 0
BBX 8 6 1 0
BITMAP
76
D9
9A
9C
B2
FE
ENDCHAR
STARTCHAR Racute
ENCODING 340
SWIDTH 623 0
DWIDTH 7 0
BBX 7 11 0 0
BITMAP
06
08
3C
42
32
26
2C
70
58
C8
8E
ENDCHAR
STARTCHAR racute
ENCODING 341
SWIDTH 407 0
DWIDTH 4 0
BBX 5 9 0 0
BITMAP
08
18
20
78
58
60
40
C0
80
ENDCHAR
STARTCHAR Rcommaaccent
ENCODING 342
SWIDTH 623 0
DWIDTH 7 0
BBX 7 12 0 -3
BITMAP
3C
42
32
26
2C
70
58
C8
8E
20
60
40
ENDCHAR
STARTCHAR rcommaaccent
ENCODING 343
SWIDTH 407 0
DWIDTH 4 0
BBX 6 9 -1 -3
BITMAP
3C
2C
30
20
60
40
40
40
80
ENDCHAR
STARTCHAR Rcaron
ENCODING 344
SWIDTH 623 0
DWIDTH 7 0
BBX 7 12 0 0
BITMAP
12
0E
00
3C
42
32
26
2C
70
58
C8
8E
ENDCHAR
STARTCHAR rcaron
ENCODING 345
SWIDTH 407 0
DWIDTH 4 0
BBX 6 9 0 0
BITMAP
24
18
00
78
58
60
40
C0
80
ENDCHAR
STARTCHAR Sacute
ENCODING 346
SWIDTH 474 0
DWIDTH 5 0
BBX 7 11 0 0
BITMAP
06
08
18
24
64
6C
60
30
50
90
60
ENDCHAR
STARTCHAR sacute
ENCODING 347
SWIDTH 423 0
DWIDTH 5 0
BBX 5 9 0 0
BITMAP
08
08
10
30
48
60
20
A0
E0
ENDCHAR
STARTCHAR Scircumflex
ENCODING 348
SWIDTH 474 0
DWIDTH 5 0
BBX 7 12 0 0
BITMAP
04
0C
12
18
24
64
6C
60
30
50
90
60
ENDCHAR
STARTCHAR scircumflex
ENCODING 349
SWIDTH 423 0
DWIDTH 5 0
BBX 5 9 0 0
BITMAP
08
18
28
30
48
60
20
A0
E0
ENDCHAR
STARTCHAR Scedilla
ENCODING 350
SWIDTH 474 0
DWIDTH 5 0
BBX 6 12 0 -3
BITMAP
18
24
64
6C
60
30
10
90
60
40
40
40
ENDCHAR
STARTCHAR scedilla
ENCODING 351
SWIDTH 423 0
DWIDTH 5 0
BBX 5 8 0 -2
BITMAP
30
48
60
20
A0
60
40
C0
ENDCHAR
STARTCHAR Scaron
ENCODING 352
SWIDTH 474 0
DWIDTH 5 0
BBX 7 12 0 0
BITMAP
12
0E
00
18
24
64
6C
60
30
50
90
60
ENDCHAR
STARTCHAR scaron
ENCODING 353
SWIDTH 423 0
DWIDTH 5 0
BBX 6 9 0 0
BITMAP
34
18
00
30
48
60
20
A0
E0
ENDCHAR
STARTCHAR Tcommaaccent
ENCODING 354
SWIDTH 471 0
DWIDTH 5 0
BBX 6 12 1 -3
BITMAP
FC
B0
20
20
20
40
40
40
80
80
80
80
ENDCHAR
STARTCHAR tcommaaccent
ENCODING 355
SWIDTH 358 0
DWIDTH 4 0
BBX 4 11 0 -3
BITMAP
20
20
70
40
40
40
50
60
40
C0
80
ENDCHAR
STARTCHAR Tcaron
ENCODING 356
SWIDTH 471 0
DWIDTH 5 0
BBX 6 12 1 0
BITMAP
04
1C
00
FC
B0
20
20
20
40
40
40
80
ENDCHAR
STARTCHAR tcaron
ENCODING 357
SWIDTH 497 0
DWIDTH 5 0
BBX 6 10 1 0
BITMAP
0C
08
28
60
F0
40
80
80
A0
C0
ENDCHAR
STARTCHAR Tbar
ENCODING 358
SWIDTH 471 0
DWIDTH 5 0
BBX 6 9 1 0
BITMAP
FC
B0
20
20
F0
60
40
40
80
ENDCHAR
STARTCHAR tbar
ENCODING 359
SWIDTH 358 0
DWIDTH 4 0
BBX 4 8 0 0
BITMAP
20
20
70
40
F0
40
50
60
ENDCHAR
STARTCHAR Utilde
ENCODING 360
SWIDTH 624 0
DWIDTH 7 0
BBX 8 11 0 0
BITMAP
1E
00
33
32
22
26
44
4C
D4
9C
E6
ENDCHAR
STARTCHAR utilde
ENCODING 361
SWIDTH 553 0
DWIDTH 6 0
BBX 7 9 0 0
BITMAP
1A
2C
00
64
6C
48
58
E8
DC
ENDCHAR
STARTCHAR Umacron
ENCODING 362
SWIDTH 624 0
DWIDTH 7 0
BBX 8 11 0 0
BITMAP
1E
00
33
32
22
26
44
4C
D4
9C
E6
ENDCHAR
STARTCHAR umacron
ENCODING 363
SWIDTH 553 0
DWIDTH 6 0
BBX 6 8 0 0
BITMAP
1C
00
64
6C
48
58
E8
DC
ENDCHAR
STARTCHAR Ubreve
ENCODING 364
SWIDTH 624 0
DWIDTH 7 0
BBX 8 12 0 0
BITMAP
0A
0E
00
33
32
22
26
44
4C
D4
9C
E6
ENDCHAR
STARTCHAR ubreve
ENCODING 365
SWIDTH 553 0
DWIDTH 6 0
BBX 7 9 0 0
BITMAP
12
1C
00
64
6C
48
58
E8
DC
ENDCHAR
STARTCHAR Uring
ENCODING 366
SWIDTH 624 0
DWIDTH 7 0
BBX 8 12 0 0
BITMAP
06
0A
0A
3F
32
22
26
44
4C
D4
9C
E6
ENDCHAR
STARTCHAR uring
ENCODING 367
SWIDTH 553 0
DWIDTH 6 0
BBX 6 9 0 0
BITMAP
0C
14
18
64
6C
48
58
E8
DC
ENDCHAR
STARTCHAR Uhungarumlaut
ENCODING 368
SWIDTH 624 0
DWIDTH 7 0
BBX 8 12 0 0
BITMAP
0E
0A
14
33
32
22
26
44
4C
D4
9C
E6
ENDCHAR
STARTCHAR uhungarumlaut
ENCODING 369
SWIDTH 553 0
DWIDTH 6 0
BBX 7 9 0 0
BITMAP
0A
14
28
64
6C
48
58
E8
DC
ENDCHAR
STARTCHAR Uogonek
ENCODING 370
SWIDTH 684 0
DWIDTH 8 0
BBX 7 12 1 -3
BITMAP
62
26
64
4C
4C
98
98
A8
CC
08
10
18
ENDCHAR
STARTCHAR uogonek
ENCODING 371
SWIDTH 553 0
DWIDTH 6 0
BBX 6 9 0 -3
BITMAP
64
6C
48
58
E8
DC
08
10
18
ENDCHAR
STARTCHAR Wcircumflex
ENCODING 372
SWIDTH 941 0
DWIDTH 10 0
BBX 10 12 1 0
BITMAP
0200
0600
0900
E0C0
2240
6440
4C40
D880
A880
A900
C900
8E00
ENDCHAR
STARTCHAR wcircumflex
ENCODING 373
SWIDTH 750 0
DWIDTH 8 0
BBX 8 9 0 0
BITMAP
04
0A
12
65
29
49
59
FA
CC
ENDCHAR
STARTCHAR Ycircumflex
ENCODING 374
SWIDTH 580 0
DWIDTH 6 0
BBX 8 15 0 -3
BITMAP
04
0C
12
33
32
22
24
44
4C
D8
98
E8
10
20
40
ENDCHAR
STARTCHAR ycircumflex
ENCODING 375
SWIDTH 549 0
DWIDTH 6 0
BBX 6 12 0 -3
BITMAP
08
14
24
64
6C
48
58
E8
D0
10
20
40
ENDCHAR
STARTCHAR Ydieresis
ENCODING 376
SWIDTH 580 0
DWIDTH 6 0
BBX 8 15 0 -3
BITMAP
0A
1A
00
33
32
22
24
44
4C
D8
98
E8
10
20
40
ENDCHAR
STARTCHAR Zacute
ENCODING 377
SWIDTH 501 0
DWIDTH 6 0
BBX 7 11 0 0
BITMAP
04
08
7E
04
08
18
30
60
40
F8
88
ENDCHAR
STARTCHAR zacute
ENCODING 378
SWIDTH 430 0
DWIDTH 5 0
BBX 5 9 0 0
BITMAP
08
08
10
78
18
30
60
C0
F0
ENDCHAR
STARTCHAR Zdotaccent
ENCODING 379
SWIDTH 501 0
DWIDTH 6 0
BBX 7 12 0 0
BITMAP
08
18
00
7E
04
0C
18
30
60
40
B8
C8
ENDCHAR
STARTCHAR zdotaccent
ENCODING 380
SWIDTH 430 0
DWIDTH 5 0
BBX 5 9 0 0
BITMAP
10
10
00
78
18
30
60
C0
F0
ENDCHAR
STARTCHAR Zcaron
ENCODING 381
SWIDTH 501 0
DWIDTH 6 0
BBX 7 12 0 0
BITMAP
02
1C
00
7E
04
08
18
30
60
40
F8
88
ENDCHAR
STARTCHAR zcaron
ENCODING 382
SWIDTH 430 0
DWIDTH 5 0
BBX 6 9 0 0
BITMAP
24
18
00
78
18
30
60
C0
F0
ENDCHAR
STARTCHAR florin
ENCODING 402
SWIDTH 466 0
DWIDTH 5 0
BBX 8 13 -2 -3
BITMAP
03
05
05
08
1E
08
18
10
10
10
10
A0
E0
ENDCHAR
STARTCHAR AEacute
ENCODING 508
SWIDTH 878 0
DWIDTH 10 0
BBX 12 11 -1 0
BITMAP
0040
0080
03E0
0510
0B20
1240
3F80
2300
2240
42C0
C380
ENDCHAR
STARTCHAR aeacute
ENCODING 509
SWIDTH 770 0
DWIDTH 8 0
BBX 8 9 0 0
BITMAP
06
04
08
3F
6D
49
DE
D9
6E
ENDCHAR
STARTCHAR Scommaaccent
ENCODING 536
SWIDTH 474 0
DWIDTH 5 0
BBX 6 12 0 -3
BITMAP
18
24
64
6C
60
30
50
90
60
40
40
40
ENDCHAR
STARTCHAR scommaaccent
ENCODING 537
SWIDTH 423 0
DWIDTH 5 0
BBX 5 9 0 -3
BITMAP
30
48
60
20
A0
E0
40
40
80
ENDCHAR
STARTCHAR dotlessj
ENCODING 567
SWIDTH 277 0
DWIDTH 3 0
BBX 5 9 -2 -3
BITMAP
18
18
10
10
10
20
20
40
80
ENDCHAR
STARTCHAR circumflex
ENCODING 710
SWIDTH 354 0
DWIDTH 4 0
BBX 4 2 0 7
BITMAP
20
D0
ENDCHAR
STARTCHAR caron
ENCODING 711
SWIDTH 381 0
DWIDTH 4 0
BBX 4 2 0 7
BITMAP
D0
60
ENDCHAR
STARTCHAR breve
ENCODING 728
SWIDTH 344 0
DWIDTH 4 0
BBX 4 2 0 7
BITMAP
90
60
ENDCHAR
STARTCHAR dotaccent
ENCODING 729
SWIDTH 217 0
DWIDTH 2 0
BBX 1 2 1 7
BITMAP
80
80
ENDCHAR
STARTCHAR ring
ENCODING 730
SWIDTH 402 0
DWIDTH 4 0
BBX 3 3 1 6
BITMAP
60
A0
60
ENDCHAR
STARTCHAR ogonek
ENCODING 731
SWIDTH 311 0
DWIDTH 3 0
BBX 3 4 0 -3
BITMAP
20
40
40
C0
ENDCHAR
STARTCHAR tilde
ENCODING 732
SWIDTH 397 0
DWIDTH 4 0
BBX 4 2 1 7
BITMAP
D0
A0
ENDCHAR
STARTCHAR hungarumlaut
ENCODING 733
SWIDTH 392 0
DWIDTH 4 0
BBX 4 3 0 6
BITMAP
30
50
A0
ENDCHAR
STARTCHAR pi
ENCODING 960
SWIDTH 640 0
DWIDTH 7 0
BBX 7 6 0 0
BITMAP
7E
24
28
48
48
8C
ENDCHAR
STARTCHAR uni1E02
ENCODING 7682
SWIDTH 551 0
DWIDTH 6 0
BBX 7 12 0 0
BITMAP
08
0C
00
3C
76
26
6C
78
48
48
88
70
ENDCHAR
STARTCHAR uni1E03
ENCODING 7683
SWIDTH 525 0
DWIDTH 6 0
BBX 6 10 0 0
BITMAP
20
2C
24
20
58
68
48
48
98
60
ENDCHAR
STARTCHAR uni1E0A
ENCODING 7690
SWIDTH 630 0
DWIDTH 7 0
BBX 6 12 1 0
BITMAP
10
18
00
F8
84
64
44
C4
88
98
B0
E0
ENDCHAR
STARTCHAR uni1E0B
ENCODING 7691
SWIDTH 557 0
DWIDTH 6 0
BBX 7 10 0 0
BITMAP
02
32
24
04
3C
6C
48
48
D8
6C
ENDCHAR
STARTCHAR uni1E1E
ENCODING 7710
SWIDTH 518 0
DWIDTH 6 0
BBX 7 12 0 0
BITMAP
04
0C
00
7E
50
10
30
78
20
20
40
C0
ENDCHAR
STARTCHAR uni1E1F
ENCODING 7711
SWIDTH 393 0
DWIDTH 4 0
BBX 6 13 0 -2
BITMAP
18
08
14
3C
20
20
78
60
40
40
40
80
80
ENDCHAR
STARTCHAR uni1E40
ENCODING 7744
SWIDTH 931 0
DWIDTH 10 0
BBX 11 12 -1 0
BITMAP
0040
00C0
0000
0620
0A60
0EA0
14C0
1540
2540
26C0
46C0
8460
ENDCHAR
STARTCHAR uni1E41
ENCODING 7745
SWIDTH 814 0
DWIDTH 9 0
BBX 9 9 0 0
BITMAP
0400
0400
0000
6D00
7B80
6D00
4B00
DA00
9300
ENDCHAR
STARTCHAR uni1E56
ENCODING 7766
SWIDTH 553 0
DWIDTH 6 0
BBX 7 12 0 0
BITMAP
04
0C
00
3C
62
32
26
2C
78
40
C0
80
ENDCHAR
STARTCHAR uni1E57
ENCODING 7767
SWIDTH 550 0
DWIDTH 6 0
BBX 7 12 -1 -3
BITMAP
0C
08
00
2C
36
26
24
6C
78
40
40
80
ENDCHAR
STARTCHAR uni1E60
ENCODING 7776
SWIDTH 474 0
DWIDTH 5 0
BBX 6 12 0 0
BITMAP
08
08
00
18
24
64
6C
60
30
50
90
60
ENDCHAR
STARTCHAR uni1E61
ENCODING 7777
SWIDTH 423 0
DWIDTH 5 0
BBX 5 9 0 0
BITMAP
18
10
00
30
48
60
20
A0
E0
ENDCHAR
STARTCHAR uni1E6A
ENCODING 7786
SWIDTH 430 0
DWIDTH 5 0
BBX 7 12 0 0
BITMAP
08
08
00
7E
90
10
10
20
20
20
40
C0
ENDCHAR
STARTCHAR uni1E6B
ENCODING 7787
SWIDTH 358 0
DWIDTH 4 0
BBX 4 9 1 0
BITMAP
20
20
40
F0
C0
80
80
A0
C0
ENDCHAR
STARTCHAR Wgrave
ENCODING 7808
SWIDTH 941 0
DWIDTH 10 0
BBX 10 12 1 0
BITMAP
0400
0400
0200
E0C0
2240
6440
4C40
D880
A880
A900
C900
8E00
ENDCHAR
STARTCHAR wgrave
ENCODING 7809
SWIDTH 750 0
DWIDTH 8 0
BBX 8 9 0 0
BITMAP
08
08
04
65
29
49
59
FA
CC
ENDCHAR
STARTCHAR Wacute
ENCODING 7810
SWIDTH 941 0
DWIDTH 10 0
BBX 10 11 1 0
BITMAP
0300
0400
E0C0
2240
6440
4C40
D880
A880
A900
C900
8E00
ENDCHAR
STARTCHAR wacute
ENCODING 7811
SWIDTH 750 0
DWIDTH 8 0
BBX 8 9 0 0
BITMAP
04
04
08
65
29
49
59
FA
CC
ENDCHAR
STARTCHAR Wdieresis
ENCODING 7812
SWIDTH 941 0
DWIDTH 10 0
BBX 10 12 1 0
BITMAP
0900
0D00
0000
E0C0
2240
6440
4C40
D880
A880
A900
C900
8E00
ENDCHAR
STARTCHAR wdieresis
ENCODING 7813
SWIDTH 750 0
DWIDTH 8 0
BBX 8 9 0 0
BITMAP
1A
12
00
65
29
49
59
FA
CC
ENDCHAR
STARTCHAR Ygrave
ENCODING 7922
SWIDTH 580 0
DWIDTH 6 0
BBX 8 15 0 -3
BITMAP
08
08
04
33
32
22
24
44
4C
D8
98
E8
10
20
40
ENDCHAR
STARTCHAR ygrave
ENCODING 7923
SWIDTH 549 0
DWIDTH 6 0
BBX 6 12 0 -3
BITMAP
10
10
08
64
6C
48
58
E8
D0
10
20
40
ENDCHAR
STARTCHAR endash
ENCODING 8211
SWIDTH 751 0
DWIDTH 8 0
BBX 7 1 1 3
BITMAP
FE
ENDCHAR
STARTCHAR emdash
ENCODING 8212
SWIDTH 1066 0
DWIDTH 12 0
BBX 10 1 1 3
BITMAP
FFC0
ENDCHAR
STARTCHAR quoteleft
ENCODING 8216
SWIDTH 268 0
DWIDTH 3 0
BBX 1 3 2 7
BITMAP
80
80
80
ENDCHAR
STARTCHAR quoteright
ENCODING 8217
SWIDTH 268 0
DWIDTH 3 0
BBX 1 3 2 7
BITMAP
80
80
80
ENDCHAR
STARTCHAR quotesinglbase
ENCODING 8218
SWIDTH 268 0
DWIDTH 3 0
BBX 2 3 0 -1
BITMAP
C0
40
80
ENDCHAR
STARTCHAR quotedblleft
ENCODING 8220
SWIDTH 485 0
DWIDTH 5 0
BBX 4 3 2 7
BITMAP
D0
A0
A0
ENDCHAR
STARTCHAR quotedblright
ENCODING 8221
SWIDTH 480 0
DWIDTH 5 0
BBX 4 3 2 7
BITMAP
F0
50
A0
ENDCHAR
STARTCHAR quotedblbase
ENCODING 8222
SWIDTH 463 0
DWIDTH 5 0
BBX 4 3 0 -1
BITMAP
D0
50
A0
ENDCHAR
STARTCHAR dagger
ENCODING 8224
SWIDTH 488 0
DWIDTH 5 0
BBX 5 9 1 0
BITMAP
30
20
F8
60
40
40
40
80
80
ENDCHAR
STARTCHAR daggerdbl
ENCODING 8225
SWIDTH 488 0
DWIDTH 5 0
BBX 5 9 1 0
BITMAP
30
20
F8
20
60
F0
40
80
80
ENDCHAR
STARTCHAR bullet
ENCODING 8226
SWIDTH 437 0
DWIDTH 5 0
BBX 3 3 1 2
BITMAP
60
E0
40
ENDCHAR
STARTCHAR ellipsis
ENCODING 8230
SWIDTH 810 0
DWIDTH 9 0
BBX 8 2 0 0
BITMAP
DB
49
ENDCHAR
STARTCHAR perthousand
ENCODING 8240
SWIDTH 1184 0
DWIDTH 13 0
BBX 11 9 1 0
BITMAP
6600
A400
A800
C800
1000
2660
2AA0
4AA0
8CC0
ENDCHAR
STARTCHAR guilsinglleft
ENCODING 8249
SWIDTH 413 0
DWIDTH 5 0
BBX 3 5 1 1
BITMAP
20
C0
80
40
40
ENDCHAR
STARTCHAR guilsinglright
ENCODING 8250
SWIDTH 416 0
DWIDTH 5 0
BBX 3 5 1 1
BITMAP
80
40
60
80
80
ENDCHAR
STARTCHAR fraction
ENCODING 8260
SWIDTH 580 0
DWIDTH 6 0
BBX 6 10 0 0
BITMAP
04
04
08
08
10
10
20
60
40
80
ENDCHAR
STARTCHAR Euro
ENCODING 8364
SWIDTH 622 0
DWIDTH 7 0
BBX 6 9 1 0
BITMAP
1C
34
24
4C
F0
F0
C0
48
70
ENDCHAR
STARTCHAR trademark
ENCODING 8482
SWIDTH 1084 0
DWIDTH 12 0
BBX 9 5 2 4
BITMAP
F580
4D80
4F00
5500
6580
ENDCHAR
STARTCHAR Omega
ENCODING 8486
SWIDTH 839 0
DWIDTH 9 0
BBX 8 9 1 0
BITMAP
3C
46
82
82
82
82
C2
44
EF
ENDCHAR
STARTCHAR partialdiff
ENCODING 8706
SWIDTH 580 0
DWIDTH 6 0
BBX 6 10 0 0
BITMAP
08
14
14
1C
64
44
CC
C8
98
70
ENDCHAR
STARTCHAR Delta
ENCODING 8710
SWIDTH 663 0
DWIDTH 7 0
BBX 7 7 0 0
BITMAP
10
18
28
24
44
46
FE
ENDCHAR
STARTCHAR product
ENCODING 8719
SWIDTH 667 0
DWIDTH 7 0
BBX 6 10 1 -1
BITMAP
FC
8C
8C
8C
8C
8C
8C
8C
8C
8C
ENDCHAR
STARTCHAR summation
ENCODING 8721
SWIDTH 677 0
DWIDTH 7 0
BBX 7 10 0 -1
BITMAP
7E
60
20
30
18
10
30
20
40
FC
ENDCHAR
STARTCHAR minus
ENCODING 8722
SWIDTH 617 0
DWIDTH 7 0
BBX 5 1 1 4
BITMAP
F8
ENDCHAR
STARTCHAR radical
ENCODING 8730
SWIDTH 709 0
DWIDTH 8 0
BBX 9 11 0 0
BITMAP
0080
0100
0100
0200
0200
6400
E400
2800
2800
3000
1000
ENDCHAR
STARTCHAR infinity
ENCODING 8734
SWIDTH 681 0
DWIDTH 8 0
BBX 6 3 1 3
BITMAP
DC
B4
FC
ENDCHAR
STARTCHAR integral
ENCODING 8747
SWIDTH 583 0
DWIDTH 6 0
BBX 9 13 -1 -2
BITMAP
0300
0680
0500
0400
0C00
0800
0800
1800
1000
1000
D000
A000
E000
ENDCHAR
STARTCHAR approxequal
ENCODING 8776
SWIDTH 671 0
DWIDTH 7 0
BBX 6 6 1 1
BITMAP
64
B4
98
64
B8
10
ENDCHAR
STARTCHAR notequal
ENCODING 8800
SWIDTH 617 0
DWIDTH 7 0
BBX 5 7 1 1
BITMAP
08
10
F8
20
F8
40
80
ENDCHAR
STARTCHAR lessequal
ENCODING 8804
SWIDTH 704 0
DWIDTH 8 0
BBX 5 8 1 0
BITMAP
08
30
40
80
60
18
00
F8
ENDCHAR
STARTCHAR greaterequal
ENCODING 8805
SWIDTH 617 0
DWIDTH 7 0
BBX 5 8 1 0
BITMAP
80
60
10
18
20
C0
00
F8
ENDCHAR
STARTCHAR lozenge
ENCODING 9674
SWIDTH 580 0
DWIDTH 6 0
BBX 6 9 0 0
BITMAP
10
30
48
48
84
48
48
30
10
ENDCHAR
STARTCHAR commaaccent
ENCODING 63171
SWIDTH 250 0
DWIDTH 3 0
BBX 2 2 0 -3
BITMAP
40
C0
ENDCHAR
STARTCHAR ff
ENCODING 64256
SWIDTH 773 0
DWIDTH 9 0
BBX 10 12 0 -2
BITMAP
0CC0
1540
3DC0
2300
2200
FF80
6200
4400
4400
4400
8C00
8800
ENDCHAR
STARTCHAR fi
ENCODING 64257
SWIDTH 623 0
DWIDTH 7 0
BBX 7 12 0 -2
BITMAP
0E
12
12
22
3E
E4
44
4C
48
CC
80
80
ENDCHAR
STARTCHAR fl
ENCODING 64258
SWIDTH 637 0
DWIDTH 7 0
BBX 7 12 0 -2
BITMAP
0E
12
12
22
22
7C
64
44
48
CC
80
80
ENDCHAR
STARTCHAR .notdef
ENCODING -1
SWIDTH 896 0
DWIDTH 10 0
BBX 10 10 1 0
BITMAP
3FC0
3F80
6D80
6B80
6780
7700
F700
DB00
FF00
FE00
ENDCHAR
ENDFONT
